<svg width="20" height="20" viewBox="0 0 20 20" fill="none" xmlns="http://www.w3.org/2000/svg">
<path d="M16.6667 5L3.33334 5C3.18507 4.99996 3.03947 5.03948 2.91156 5.11448C2.78366 5.18949 2.67808 5.29726 2.60573 5.42669C2.53337 5.55611 2.49686 5.70249 2.49996 5.85074C2.50305 5.99898 2.54565 6.14371 2.62334 6.27L9.29001 17.1033C9.36457 17.2247 9.46897 17.3249 9.59327 17.3944C9.71756 17.4639 9.8576 17.5004 10 17.5004C10.1424 17.5004 10.2825 17.4639 10.4067 17.3944C10.531 17.3249 10.6355 17.2247 10.71 17.1033L17.3767 6.27C17.4544 6.14371 17.497 5.99898 17.5001 5.85074C17.5032 5.70249 17.4666 5.55611 17.3943 5.42669C17.3219 5.29726 17.2164 5.18949 17.0885 5.11448C16.9606 5.03948 16.815 4.99996 16.6667 5Z" fill="#7C8EA6"/>
</svg>
