<svg width="33" height="32" viewBox="0 0 33 32" fill="none" xmlns="http://www.w3.org/2000/svg">
<path d="M3.16663 6.66669V25.3334C3.16663 26.48 4.51596 27.0907 5.37863 26.3374L16.0453 17.004C16.1885 16.8789 16.3033 16.7245 16.3819 16.5514C16.4606 16.3782 16.5013 16.1902 16.5013 16C16.5013 15.8098 16.4606 15.6218 16.3819 15.4487C16.3033 15.2755 16.1885 15.1212 16.0453 14.996L5.37863 5.66269C4.51596 4.90936 3.16663 5.52136 3.16663 6.66669Z" fill="#7C8EA6"/>
<path d="M17.8334 6.66669V25.3334C17.8334 26.48 19.1827 27.0907 20.0454 26.3374L30.712 17.004C30.8553 16.8789 30.97 16.7245 31.0487 16.5514C31.1273 16.3782 31.168 16.1902 31.168 16C31.168 15.8098 31.1273 15.6218 31.0487 15.4487C30.97 15.2755 30.8553 15.1212 30.712 14.996L20.0454 5.66269C19.1827 4.90936 17.8334 5.52136 17.8334 6.66669Z" fill="#7C8EA6"/>
</svg>
