<svg width="32" height="32" viewBox="0 0 32 32" fill="none" xmlns="http://www.w3.org/2000/svg">
<g clip-path="url(#clip0_59_51)">
<path d="M31.5607 22.4393C32.1465 23.0251 32.1465 23.9749 31.5607 24.5606L26.5607 29.5596C25.6226 30.4977 24 29.8402 24 28.4989V26H20.3259C20.2231 26 20.1213 25.9788 20.027 25.9378C19.9327 25.8969 19.8478 25.8369 19.7776 25.7617L15.3679 21.037L18.7012 17.4656L22 21H24V18.5012C24 17.1613 25.6214 16.5013 26.5607 17.4405L31.5607 22.4393ZM0.75 11H6L9.29881 14.5344L12.6321 10.963L8.22237 6.23825C8.1522 6.16306 8.06731 6.10311 7.97299 6.06212C7.87866 6.02114 7.77691 5.99999 7.67406 6H0.75C0.335813 6 0 6.33581 0 6.75V10.25C0 10.6642 0.335813 11 0.75 11ZM24 11V13.499C24 14.8402 25.6226 15.4977 26.5607 14.5597L31.5607 9.56068C32.1465 8.97487 32.1465 8.02512 31.5607 7.43937L26.5607 2.44056C25.6214 1.50131 24 2.16137 24 3.50118V6H20.3259C20.2231 6.00001 20.1213 6.02116 20.027 6.06215C19.9327 6.10313 19.8478 6.16307 19.7776 6.23825L6 21H0.75C0.335813 21 0 21.3358 0 21.75V25.25C0 25.6642 0.335813 26 0.75 26H7.67406C7.88194 26 8.0805 25.9137 8.22237 25.7617L22 11H24Z" fill="#7C8EA6"/>
</g>
<defs>
<clipPath id="clip0_59_51">
<rect width="32" height="32" fill="white"/>
</clipPath>
</defs>
</svg>
