<svg width="33" height="32" viewBox="0 0 33 32" fill="none" xmlns="http://www.w3.org/2000/svg">
<path d="M8.5 5.33334V26.6667C8.49993 26.9039 8.56317 27.1369 8.68318 27.3415C8.80318 27.5462 8.97562 27.7151 9.1827 27.8309C9.38978 27.9466 9.62399 28.005 9.86118 28.0001C10.0984 27.9951 10.3299 27.927 10.532 27.8027L27.8653 17.136C28.0595 17.0167 28.2198 16.8497 28.331 16.6508C28.4422 16.4519 28.5006 16.2279 28.5006 16C28.5006 15.7722 28.4422 15.5481 28.331 15.3492C28.2198 15.1504 28.0595 14.9833 27.8653 14.864L10.532 4.19734C10.3299 4.07303 10.0984 4.00488 9.86118 3.99992C9.62399 3.99497 9.38978 4.05339 9.1827 4.16916C8.97562 4.28492 8.80318 4.45385 8.68318 4.65849C8.56317 4.86314 8.49993 5.0961 8.5 5.33334Z" fill="#7C8EA6"/>
</svg>
