<svg width="33" height="32" viewBox="0 0 33 32" fill="none" xmlns="http://www.w3.org/2000/svg">
<path d="M27.6213 5.66264L16.9546 14.996C16.8114 15.1211 16.6966 15.2755 16.618 15.4486C16.5393 15.6218 16.4987 15.8098 16.4987 16C16.4987 16.1902 16.5393 16.3782 16.618 16.5513C16.6966 16.7245 16.8114 16.8788 16.9546 17.004L27.6213 26.3373C28.484 27.0906 29.8333 26.4786 29.8333 25.3333V6.66664C29.8333 5.51997 28.484 4.90931 27.6213 5.66264Z" fill="#7C8EA6"/>
<path d="M12.9547 5.66264L2.288 14.996C2.14479 15.1211 2.03001 15.2755 1.95136 15.4486C1.87272 15.6218 1.83203 15.8098 1.83203 16C1.83203 16.1902 1.87272 16.3782 1.95136 16.5513C2.03001 16.7245 2.14479 16.8788 2.288 17.004L12.9547 26.3373C13.8173 27.0906 15.1667 26.4786 15.1667 25.3333V6.66664C15.1667 5.51997 13.8173 4.90931 12.9547 5.66264Z" fill="#7C8EA6"/>
</svg>
