<svg width="32" height="32" viewBox="0 0 32 32" fill="none" xmlns="http://www.w3.org/2000/svg">
<path d="M2.975 18.775L14.2688 29.3188C14.7375 29.7563 15.3562 30 16 30C16.6437 30 17.2625 29.7563 17.7313 29.3188L29.025 18.775C30.925 17.0063 32 14.525 32 11.9312V11.5688C32 7.2 28.8438 3.475 24.5375 2.75625C21.6875 2.28125 18.7875 3.2125 16.75 5.25L16 6L15.25 5.25C13.2125 3.2125 10.3125 2.28125 7.4625 2.75625C3.15625 3.475 0 7.2 0 11.5688V11.9312C0 14.525 1.075 17.0063 2.975 18.775Z" fill="#7C8EA6"/>
</svg>
