<svg width="32" height="32" viewBox="0 0 32 32" fill="none" xmlns="http://www.w3.org/2000/svg">
<path d="M16 4C16 4 7.752 11.12 3.14267 14.976C2.872 15.2213 2.66667 15.5787 2.66667 16C2.66667 16.7373 3.26267 17.3333 4 17.3333H6.66667V26.6667C6.66667 27.404 7.26267 28 8 28H12C12.7373 28 13.3333 27.4027 13.3333 26.6667V21.3333H18.6667V26.6667C18.6667 27.4027 19.2627 28 20 28H24C24.7373 28 25.3333 27.404 25.3333 26.6667V17.3333H28C28.7373 17.3333 29.3333 16.7373 29.3333 16C29.3333 15.5787 29.128 15.2213 28.8227 14.976C24.2453 11.12 16 4 16 4Z" fill="#353440"/>
</svg>
