<svg width="100" height="100" viewBox="0 0 100 100" fill="none" xmlns="http://www.w3.org/2000/svg">
<g clip-path="url(#clip0_47_222)">
<path d="M50 75C51.6576 75 53.2473 74.3415 54.4194 73.1694C55.5915 71.9973 56.25 70.4076 56.25 68.75C56.25 67.0924 55.5915 65.5027 54.4194 64.3306C53.2473 63.1585 51.6576 62.5 50 62.5C48.3424 62.5 46.7527 63.1585 45.5806 64.3306C44.4085 65.5027 43.75 67.0924 43.75 68.75C43.75 70.4076 44.4085 71.9973 45.5806 73.1694C46.7527 74.3415 48.3424 75 50 75Z" fill="#353440"/>
<path d="M25 0C21.6848 0 18.5054 1.31696 16.1612 3.66117C13.817 6.00537 12.5 9.18479 12.5 12.5V87.5C12.5 90.8152 13.817 93.9946 16.1612 96.3388C18.5054 98.683 21.6848 100 25 100H75C78.3152 100 81.4946 98.683 83.8388 96.3388C86.183 93.9946 87.5 90.8152 87.5 87.5V12.5C87.5 9.18479 86.183 6.00537 83.8388 3.66117C81.4946 1.31696 78.3152 0 75 0L25 0ZM31.25 12.5H68.75C70.4076 12.5 71.9973 13.1585 73.1694 14.3306C74.3415 15.5027 75 17.0924 75 18.75V34.375C75 36.0326 74.3415 37.6223 73.1694 38.7944C71.9973 39.9665 70.4076 40.625 68.75 40.625H31.25C29.5924 40.625 28.0027 39.9665 26.8306 38.7944C25.6585 37.6223 25 36.0326 25 34.375V18.75C25 17.0924 25.6585 15.5027 26.8306 14.3306C28.0027 13.1585 29.5924 12.5 31.25 12.5ZM50 87.5C47.5377 87.5 45.0995 87.015 42.8247 86.0727C40.5498 85.1305 38.4828 83.7494 36.7417 82.0083C35.0007 80.2672 33.6195 78.2002 32.6773 75.9253C31.735 73.6505 31.25 71.2123 31.25 68.75C31.25 66.2877 31.735 63.8495 32.6773 61.5747C33.6195 59.2998 35.0007 57.2328 36.7417 55.4917C38.4828 53.7506 40.5498 52.3695 42.8247 51.4273C45.0995 50.485 47.5377 50 50 50C54.9728 50 59.7419 51.9754 63.2583 55.4917C66.7746 59.0081 68.75 63.7772 68.75 68.75C68.75 73.7228 66.7746 78.492 63.2583 82.0083C59.7419 85.5246 54.9728 87.5 50 87.5Z" fill="#353440"/>
</g>
<defs>
<clipPath id="clip0_47_222">
<rect width="100" height="100" fill="white"/>
</clipPath>
</defs>
</svg>
