<svg width="32" height="32" viewBox="0 0 32 32" fill="none" xmlns="http://www.w3.org/2000/svg">
<path fill-rule="evenodd" clip-rule="evenodd" d="M6.4 2.13336C5.22178 2.13336 4.26667 3.0885 4.26667 4.2667V27.7334C4.26667 28.9116 5.2218 29.8667 6.4 29.8667H22.4C22.989 29.8667 23.4667 29.389 23.4667 28.8C23.4667 28.211 22.989 27.7334 22.4 27.7334H6.4V4.2667H22.4C22.989 4.2667 23.4667 3.78913 23.4667 3.20003C23.4667 2.61093 22.989 2.13336 22.4 2.13336H6.4ZM26.8877 10.4458C26.471 10.0292 25.7956 10.0292 25.379 10.4458C24.9626 10.8623 24.9626 11.5377 25.379 11.9543L28.3582 14.9334H13.8667C13.2776 14.9334 12.8 15.4109 12.8 16C12.8 16.5891 13.2776 17.0667 13.8667 17.0667H28.3582L25.379 20.0458C24.9626 20.4623 24.9626 21.1377 25.379 21.5544C25.7956 21.9708 26.471 21.9708 26.8877 21.5544L31.6877 16.7543C32.1041 16.3377 32.1041 15.6623 31.6877 15.2458L26.8877 10.4458Z" fill="#7C8EA6"/>
</svg>
