<svg width="32" height="32" viewBox="0 0 32 32" fill="none" xmlns="http://www.w3.org/2000/svg">
<path d="M16 13.3333C14.5333 13.3333 13.3333 14.5333 13.3333 16C13.3333 17.4667 14.5333 18.6667 16 18.6667C17.4667 18.6667 18.6667 17.4667 18.6667 16C18.6667 14.5333 17.4667 13.3333 16 13.3333ZM25.3333 4H6.66667C5.95942 4 5.28115 4.28095 4.78105 4.78105C4.28095 5.28115 4 5.95942 4 6.66667V25.3333C4 26.0406 4.28095 26.7189 4.78105 27.219C5.28115 27.719 5.95942 28 6.66667 28H25.3333C26.0406 28 26.7189 27.719 27.219 27.219C27.719 26.7189 28 26.0406 28 25.3333V6.66667C28 5.95942 27.719 5.28115 27.219 4.78105C26.7189 4.28095 26.0406 4 25.3333 4ZM23 16C23 16.3067 22.9733 16.6133 22.9333 16.9067L24.9067 18.4533C25.08 18.6 25.1333 18.8533 25.0133 19.0533L23.1467 22.28C23.0267 22.48 22.7867 22.56 22.5733 22.48L20.2533 21.5467C19.7733 21.92 19.24 22.2267 18.68 22.4667L18.3333 24.9333C18.2933 25.16 18.0933 25.3333 17.8667 25.3333H14.1333C13.9067 25.3333 13.7067 25.16 13.6667 24.9467L13.32 22.48C12.7467 22.24 12.2267 21.9333 11.7467 21.56L9.42667 22.4933C9.21333 22.5733 8.97333 22.4933 8.85333 22.2933L6.98667 19.0667C6.93041 18.9703 6.91025 18.857 6.92979 18.7471C6.94932 18.6372 7.00729 18.5378 7.09333 18.4667L9.06667 16.92C9.02667 16.6133 9 16.3067 9 16C9 15.6933 9.02667 15.3867 9.06667 15.0933L7.09333 13.5467C7.00729 13.4755 6.94932 13.3762 6.92979 13.2663C6.91025 13.1564 6.93041 13.0431 6.98667 12.9467L8.85333 9.72C8.97333 9.52 9.21333 9.44 9.42667 9.52L11.7467 10.4533C12.2267 10.08 12.76 9.77333 13.32 9.53333L13.6667 7.06667C13.7067 6.84 13.9067 6.66667 14.1333 6.66667H17.8667C18.0933 6.66667 18.2933 6.84 18.3333 7.05333L18.68 9.52C19.2533 9.76 19.7733 10.0667 20.2533 10.44L22.5733 9.50667C22.7867 9.42667 23.0267 9.50667 23.1467 9.70667L25.0133 12.9333C25.1333 13.1333 25.08 13.3867 24.9067 13.5333L22.9333 15.08C22.9733 15.3867 23 15.6933 23 16Z" fill="#7C8EA6"/>
</svg>
