<svg width="44" height="45" viewBox="0 0 44 45" fill="none" xmlns="http://www.w3.org/2000/svg">
<path d="M33 17.5H11C10.45 17.5 10 17.05 10 16.5C10 15.95 10.45 15.5 11 15.5H33C33.55 15.5 34 15.95 34 16.5C34 17.05 33.55 17.5 33 17.5ZM33 23.5H11C10.45 23.5 10 23.05 10 22.5C10 21.95 10.45 21.5 11 21.5H33C33.55 21.5 34 21.95 34 22.5C34 23.05 33.55 23.5 33 23.5ZM33 29.5H11C10.45 29.5 10 29.05 10 28.5C10 27.95 10.45 27.5 11 27.5H33C33.55 27.5 34 27.95 34 28.5C34 29.05 33.55 29.5 33 29.5Z" fill="black"/>
</svg>
